<?xml version="1.0" encoding="UTF-8"?>
<svg xmlns="http://www.w3.org/2000/svg" width="900" height="900" viewBox="0 0 900 900">
  <defs>
    <style>
      .line { fill: none; stroke: #ebebeb; stroke-width: 1.5; opacity: 0.55; }
      @media (prefers-color-scheme: dark) {
        .line { stroke: #444; opacity: 0.25; }
      }
    </style>
  </defs>

  <path class="line" d="M0 450 Q 150 350 300 450 T 600 450 T 900 450" />
  <path class="line" d="M0 550 Q 150 650 300 550 T 600 550 T 900 550" />
  <path class="line" d="M0 350 Q 150 250 300 350 T 600 350 T 900 350" />
  <path class="line" d="M0 250 Q 200 100 400 250 T 800 250 T 1200 250" />
  <path class="line" d="M0 650 Q 200 800 400 650 T 800 650 T 1200 650" />
  <path class="line" d="M100 100 Q 250 200 400 100 T 700 100 T 1000 100" />
  <path class="line" d="M100 800 Q 250 700 400 800 T 700 800 T 1000 800" />
</svg>
